<?xml version="1.0" encoding="UTF-8" standalone="no"?>
<svg width="957px" height="646px" viewBox="0 0 957 646" version="1.1" xmlns="http://www.w3.org/2000/svg" xmlns:xlink="http://www.w3.org/1999/xlink" xmlns:sketch="http://www.bohemiancoding.com/sketch/ns">
    <!-- Generator: Sketch 3.3.2 (12043) - http://www.bohemiancoding.com/sketch -->
    <title>buła logo</title>
    <desc>Created with Sketch.</desc>
    <defs>
        <linearGradient x1="5.79559949%" y1="100%" x2="100%" y2="100%" id="linearGradient-1">
            <stop stop-color="#ED4648" offset="0%"></stop>
            <stop stop-color="#4F85C5" offset="0.310905612%"></stop>
            <stop stop-color="#538AB7" offset="5.81600765%"></stop>
            <stop stop-color="#6BB044" offset="6.21261161%"></stop>
            <stop stop-color="#69B046" offset="13.058514%"></stop>
            <stop stop-color="#FFEA23" offset="13.3299585%"></stop>
            <stop stop-color="#FFE924" offset="14.9064892%"></stop>
            <stop stop-color="#AD7592" offset="15.4195631%"></stop>
            <stop stop-color="#AD7592" offset="17.4141422%"></stop>
            <stop stop-color="#FBE22B" offset="18.0204082%"></stop>
            <stop stop-color="#F8A832" offset="19.3746811%"></stop>
            <stop stop-color="#FBEC25" offset="22.521604%"></stop>
            <stop stop-color="#EE4043" offset="24.5849011%"></stop>
            <stop stop-color="#7BCCC3" offset="27.3262117%"></stop>
            <stop stop-color="#EE4542" offset="26.462771%"></stop>
            <stop stop-color="#7BCCC3" offset="31.2753508%"></stop>
            <stop stop-color="#9C60A7" offset="32.0365912%"></stop>
            <stop stop-color="#995EA4" offset="35.582669%"></stop>
            <stop stop-color="#EC4347" offset="36.1476403%"></stop>
            <stop stop-color="#EA4246" offset="39.3325096%"></stop>
            <stop stop-color="#E184AF" offset="39.3364158%"></stop>
            <stop stop-color="#ED4749" offset="41.654257%"></stop>
            <stop stop-color="#EC4648" offset="49.8863999%"></stop>
            <stop stop-color="#4F85C5" offset="51.8787468%"></stop>
            <stop stop-color="#5088BD" offset="54.4308036%"></stop>
            <stop stop-color="#6BB045" offset="55.636081%"></stop>
            <stop stop-color="#6BB045" offset="62.3415179%"></stop>
            <stop stop-color="#FFEC20" offset="63.6041135%"></stop>
            <stop stop-color="#A76B9D" offset="65.0967793%"></stop>
            <stop stop-color="#F6DE31" offset="66.4240274%"></stop>
            <stop stop-color="#F9A831" offset="67.7583705%"></stop>
            <stop stop-color="#FBE325" offset="71.1131218%"></stop>
            <stop stop-color="#FBE325" offset="71.5634566%"></stop>
            <stop stop-color="#EC4545" offset="72.8449458%"></stop>
            <stop stop-color="#DF5557" offset="75.292889%"></stop>
            <stop stop-color="#7ACDC4" offset="75.7951212%"></stop>
            <stop stop-color="#7AD0C3" offset="80.2748724%"></stop>
            <stop stop-color="#9E62A8" offset="80.9609375%"></stop>
            <stop stop-color="#9E62A8" offset="83.9743304%"></stop>
            <stop stop-color="#ED4249" offset="84.4112723%"></stop>
            <stop stop-color="#F14645" offset="88.6818399%"></stop>
            <stop stop-color="#F7AD36" offset="89.6139987%"></stop>
            <stop stop-color="#E386A6" offset="94.755979%"></stop>
            <stop stop-color="#ED4648" offset="97.2417092%"></stop>
        </linearGradient>
    </defs>
    <g id="Page-1" stroke="none" stroke-width="1" fill="none" fill-rule="evenodd" sketch:type="MSPage">
        <g id="Group-Copy" sketch:type="MSLayerGroup" transform="translate(0.677673, 0.501953)">
            <path d="M15.2577209,451.731628 L940.892792,451.731628" id="Line" stroke="#000000" stroke-width="2" stroke-linecap="square" sketch:type="MSShapeGroup"></path>
            <rect id="Rectangle-1" fill="url(#linearGradient-1)" sketch:type="MSShapeGroup" x="0" y="492.418884" width="956.150513" height="152.577209" rx="2"></rect>
            <path d="M1.9042409e-08,119.065643 C1.9042409e-08,119.065643 35.0285262,0.424472444 413.914343,0.424472511 C773.614083,0.424472574 -30.8581834,0.424472511 510.833011,0.424472511 C822.256034,0.424472511 956.150482,82.3382043 956.150513,119.065644 C956.150544,155.793085 956.150514,195.430788 956.150514,195.430788 C956.150513,196.53839 955.250223,197.436279 954.15522,197.436279 L1.99529302,197.436279 C0.893323116,197.436279 2.248724e-10,196.542638 4.9265917e-10,195.440086 L1.9042409e-08,119.065643 Z" id="Rectangle-1-Copy" fill="url(#linearGradient-1)" sketch:type="MSShapeGroup"></path>
            <path d="M7.6492041,400.872559 L7.6492041,224.371243 L68.5580261,224.371243 C80.1132646,224.371243 89.9798254,225.469788 98.1580048,227.66691 C106.336184,229.864033 113.049514,232.996921 118.298196,237.065667 C123.546879,241.134412 127.391786,246.057521 129.833033,251.83514 C132.274281,257.61276 133.494886,264.122655 133.494886,271.365023 C133.494886,275.515144 132.884584,279.482112 131.66396,283.266046 C130.443336,287.049979 128.551398,290.589735 125.988088,293.885419 C123.424778,297.181104 120.16983,300.171587 116.223146,302.856959 C112.276463,305.542332 107.577132,307.820795 102.125012,309.692418 C126.374738,315.144538 138.499419,328.245703 138.499419,348.996307 C138.499419,356.4828 137.075379,363.399564 134.227257,369.746808 C131.379135,376.094052 127.229076,381.566433 121.776957,386.164116 C116.324837,390.761799 109.611507,394.362585 101.636765,396.966582 C93.6620231,399.570579 84.5481689,400.872559 74.2949292,400.872559 L7.6492041,400.872559 L7.6492041,400.872559 Z M40.4838196,323.485398 L40.4838196,375.239587 L73.8066821,375.239587 C79.909801,375.239587 85.0160006,374.507224 89.125434,373.042476 C93.2348673,371.577727 96.5305021,369.624758 99.0124371,367.183511 C101.494372,364.742263 103.284594,361.894184 104.383155,358.639187 C105.481716,355.38419 106.030989,351.925808 106.030989,348.263937 C106.030989,344.439316 105.420686,341.001277 104.200062,337.949717 C102.979438,334.898158 101.067157,332.2942 98.4631592,330.137764 C95.8591618,327.981329 92.5228402,326.333512 88.4540942,325.194263 C84.3853483,324.055014 79.4622396,323.485398 73.6846204,323.485398 L40.4838196,323.485398 L40.4838196,323.485398 Z M40.4838196,300.781909 L66.7270996,300.781909 C77.8754635,300.781909 86.338328,298.747567 92.1159473,294.678821 C97.8935665,290.610075 100.782333,284.140866 100.782333,275.271 C100.782333,266.075634 98.1783744,259.525051 92.9703796,255.619055 C87.7623848,251.713059 79.6250151,249.76009 68.5580261,249.76009 L40.4838196,249.76009 L40.4838196,300.781909 L40.4838196,300.781909 Z M329.281962,374.385155 C335.629205,374.385155 341.305021,373.327297 346.309578,371.211549 C351.314136,369.095801 355.545568,366.125661 359.004002,362.30104 C362.462436,358.476419 365.107081,353.838118 366.938017,348.385999 C368.768953,342.933879 369.684407,336.830852 369.684407,330.076733 L369.684407,224.371243 L402.519022,224.371243 L402.519022,330.076733 C402.519022,340.574098 400.830518,350.277911 397.453459,359.188465 C394.0764,368.099019 389.214321,375.788833 382.867078,382.258139 C376.519834,388.727445 368.83002,393.772614 359.797404,397.393798 C350.764788,401.014982 340.593075,402.825547 329.281962,402.825547 C317.970848,402.825547 307.799136,401.014982 298.76652,397.393798 C289.733904,393.772614 282.064433,388.727445 275.757877,382.258139 C269.45132,375.788833 264.609585,368.099019 261.232526,359.188465 C257.855467,350.277911 256.166963,340.574098 256.166963,330.076733 L256.166963,224.371243 L289.001578,224.371243 L289.001578,329.954672 C289.001578,336.70879 289.917032,342.811817 291.747968,348.263937 C293.578904,353.716056 296.203206,358.374701 299.620952,362.240009 C303.038699,366.105318 307.249788,369.095801 312.254345,371.211549 C317.258903,373.327297 322.934718,374.385155 329.281962,374.385155 L329.281962,374.385155 L329.281962,374.385155 Z M568.645088,294.678821 L612.343201,272.829764 L612.343201,294.800883 C612.343201,297.811755 611.000535,300.008844 608.315162,301.392218 L568.645088,322.020657 L568.645088,373.774846 L639.318851,373.774846 L639.318851,400.872559 L535.810472,400.872559 L535.810472,336.423945 L513.839354,347.409504 L513.839354,324.828077 C513.839354,322.22408 515.100647,320.271111 517.623269,318.969113 L535.810472,309.570356 L535.810472,224.371243 L568.645088,224.371243 L568.645088,294.678821 L568.645088,294.678821 Z M908.587111,400.872559 L883.198263,400.872559 C880.350141,400.872559 878.010647,400.160539 876.179711,398.736478 C874.348776,397.312417 873.026453,395.542539 872.212704,393.426791 L859.030033,357.418569 L785.915034,357.418569 L772.732363,393.426791 C772.081364,395.298414 770.799728,397.007262 768.887418,398.553385 C766.975107,400.099508 764.635613,400.872559 761.868866,400.872559 L736.357957,400.872559 L805.689041,224.371243 L839.256027,224.371243 L908.587111,400.872559 L908.587111,400.872559 Z M794.337296,334.226833 L850.607771,334.226833 L829.1249,275.515123 C828.148401,272.911126 827.070199,269.839269 825.890263,266.29946 C824.710327,262.759651 823.550752,258.914744 822.411503,254.764623 C821.272254,258.914744 820.153365,262.779994 819.054804,266.360491 C817.956243,269.940987 816.878041,273.073875 815.820167,275.759247 L794.337296,334.226833 L794.337296,334.226833 Z" id="BUŁA" fill="#000000" sketch:type="MSShapeGroup"></path>
        </g>
    </g>
</svg>